<svg width="510" height="510" viewBox="0 0 510 510" fill="none" xmlns="http://www.w3.org/2000/svg">
<g filter="url(#filter0_d_972_18099)">
<g clip-path="url(#clip0_972_18099)">
<rect x="5" y="5" width="500" height="500" rx="12" fill="white"/>
<path d="M191 126H174V129H191V126Z" fill="#CCCCCC"/>
<path d="M191 152H174V155H191V152Z" fill="#CCCCCC"/>
<path d="M70.1429 235H59.8571C58.8345 234.999 57.8541 234.598 57.131 233.885C56.4079 233.173 56.0012 232.206 56 231.198V189.802C56.0012 188.794 56.4079 187.827 57.131 187.115C57.8541 186.402 58.8345 186.001 59.8571 186H70.1429C71.1655 186.001 72.1459 186.402 72.869 187.115C73.5921 187.827 73.9988 188.794 74 189.802V231.198C73.9988 232.206 73.5921 233.173 72.869 233.885C72.1459 234.598 71.1655 234.999 70.1429 235Z" fill="#F2F2F2"/>
<path d="M74 220H57V224H74V220Z" fill="#CCCCCC"/>
<path d="M99 220H82V224H99V220Z" fill="#CCCCCC"/>
<path d="M125 194H108V197H125V194Z" fill="#CCCCCC"/>
<path d="M152 57H136V60H152V57Z" fill="#CCCCCC"/>
<path d="M178 57H161V60H178V57Z" fill="#CCCCCC"/>
<path d="M200.143 98H189.857C188.835 97.9989 187.854 97.5979 187.131 96.8852C186.408 96.1725 186.001 95.2062 186 94.1983V52.8017C186.001 51.7938 186.408 50.8275 187.131 50.1148C187.854 49.402 188.835 49.0011 189.857 49H200.143C201.165 49.0011 202.146 49.402 202.869 50.1148C203.592 50.8275 203.999 51.7938 204 52.8017V94.1983C203.999 95.2062 203.592 96.1725 202.869 96.8852C202.146 97.5979 201.165 97.9989 200.143 98Z" fill="#F2F2F2"/>
<path d="M203 57H186V60H203V57Z" fill="#CCCCCC"/>
<path d="M203 83H186V87H203V83Z" fill="#CCCCCC"/>
<path d="M225.143 98H214.857C213.835 97.9989 212.854 97.5979 212.131 96.8852C211.408 96.1725 211.001 95.2062 211 94.1983V52.8017C211.001 51.7938 211.408 50.8275 212.131 50.1148C212.854 49.402 213.835 49.0011 214.857 49H225.143C226.165 49.0011 227.146 49.402 227.869 50.1148C228.592 50.8275 228.999 51.7938 229 52.8017V94.1983C228.999 95.2062 228.592 96.1725 227.869 96.8852C227.146 97.5979 226.165 97.9989 225.143 98Z" fill="#F2F2F2"/>
<path d="M263.153 168H21.8467C21.6221 168 21.4068 167.895 21.248 167.707C21.0892 167.52 21 167.265 21 167C21 166.735 21.0892 166.48 21.248 166.293C21.4068 166.105 21.6221 166 21.8467 166H263.153C263.378 166 263.593 166.105 263.752 166.293C263.911 166.48 264 166.735 264 167C264 167.265 263.911 167.52 263.752 167.707C263.593 167.895 263.378 168 263.153 168Z" fill="#CCCCCC"/>
<path d="M62.2495 158.405C63.2853 147.293 66.1462 136.425 70.718 126.235C71.9922 123.4 73.3946 120.627 74.9253 117.916C75.002 117.774 75.0205 117.608 74.9768 117.453C74.9331 117.298 74.8307 117.166 74.6911 117.085C74.5515 117.004 74.3857 116.98 74.2286 117.018C74.0715 117.056 73.9355 117.153 73.8491 117.289C68.2826 127.162 64.3829 137.88 62.3059 149.013C61.7281 152.122 61.2939 155.253 61.0032 158.405C60.9293 159.201 62.1761 159.196 62.2495 158.405Z" fill="#3F3D56"/>
<path d="M85.0937 115.501C80.1324 120.231 72.713 120.542 72.713 120.542C72.713 120.542 73.3375 113.184 78.2988 108.453C83.2601 103.723 90.6795 103.412 90.6795 103.412C90.6795 103.412 90.055 110.77 85.0937 115.501Z" fill="#005451"/>
<path d="M62.8925 158.618C63.6324 151.474 65.6759 144.487 68.9414 137.937C69.8515 136.114 70.8533 134.332 71.9466 132.589C72.0014 132.498 72.0146 132.391 71.9834 132.291C71.9522 132.192 71.8791 132.107 71.7794 132.055C71.6797 132.002 71.5612 131.987 71.449 132.011C71.3368 132.036 71.2396 132.099 71.178 132.186C67.2019 138.533 64.4163 145.423 62.9328 152.58C62.5201 154.578 62.2099 156.591 62.0023 158.618C61.9495 159.129 62.84 159.126 62.8925 158.618Z" fill="#3F3D56"/>
<path d="M83.0937 127.501C78.1324 132.231 70.713 132.542 70.713 132.542C70.713 132.542 71.3375 125.184 76.2988 120.453C81.2601 115.723 88.6795 115.412 88.6795 115.412C88.6795 115.412 88.055 122.77 83.0937 127.501Z" fill="#005451"/>
<path d="M61.9282 158.33C57.8614 152.176 54.8645 145.417 53.0572 138.322C52.5553 136.347 52.1473 134.353 51.8332 132.339C51.8151 132.235 51.756 132.142 51.6684 132.079C51.5808 132.017 51.4716 131.99 51.3637 132.004C51.2559 132.018 51.158 132.072 51.0905 132.154C51.023 132.237 50.9913 132.342 51.0021 132.447C52.1503 139.778 54.5336 146.876 58.0564 153.458C59.0414 155.295 60.1116 157.085 61.2671 158.83C61.5582 159.27 62.2175 158.767 61.9282 158.33Z" fill="#3F3D56"/>
<path d="M49.7959 122.343C53.2445 128.284 51.7919 135.512 51.7919 135.512C51.7919 135.512 44.7482 133.108 41.2997 127.168C37.8511 121.228 39.3037 114 39.3037 114C39.3037 114 46.3474 116.403 49.7959 122.343Z" fill="#005451"/>
<path d="M64.7959 121.343C68.2445 127.284 66.7919 134.512 66.7919 134.512C66.7919 134.512 59.7482 132.108 56.2997 126.168C52.8511 120.228 54.3037 113 54.3037 113C54.3037 113 61.3474 115.403 64.7959 121.343Z" fill="#005451"/>
<path d="M46 163.143V152.857C46.0012 151.835 46.4116 150.854 47.1412 150.131C47.8708 149.408 48.8601 149.001 49.8919 149H74.1081C75.1399 149.001 76.1292 149.408 76.8588 150.131C77.5884 150.854 77.9988 151.835 78 152.857V163.143C77.9988 164.165 77.5884 165.146 76.8588 165.869C76.1292 166.592 75.1399 166.999 74.1081 167H49.8919C48.8601 166.999 47.8708 166.592 47.1412 165.869C46.4116 165.146 46.0012 164.165 46 163.143Z" fill="#E4E4E7"/>
<path d="M73.1429 98H62.8571C61.8345 97.9989 60.8541 97.5979 60.131 96.8852C59.4079 96.1725 59.0012 95.2062 59 94.1983V52.8017C59.0012 51.7938 59.4079 50.8275 60.131 50.1148C60.8541 49.402 61.8345 49.0011 62.8571 49H73.1429C74.1655 49.0011 75.1459 49.402 75.869 50.1148C76.5921 50.8275 76.9988 51.7938 77 52.8017V94.1983C76.9988 95.2062 76.5921 96.1725 75.869 96.8852C75.1459 97.5979 74.1655 97.9989 73.1429 98Z" fill="#F2F2F2"/>
<path d="M76 57H59V60H76V57Z" fill="#CCCCCC"/>
<path d="M76 83H59V87H76V83Z" fill="#CCCCCC"/>
<path d="M98.1429 98H87.8571C86.8345 97.9989 85.8541 97.5979 85.131 96.8852C84.4079 96.1725 84.0012 95.2062 84 94.1983V52.8017C84.0012 51.7938 84.4079 50.8275 85.131 50.1148C85.8541 49.402 86.8345 49.0011 87.8571 49H98.1429C99.1655 49.0011 100.146 49.402 100.869 50.1148C101.592 50.8275 101.999 51.7938 102 52.8017V94.1983C101.999 95.2062 101.592 96.1725 100.869 96.8852C100.146 97.5979 99.1655 97.9989 98.1429 98Z" fill="#F2F2F2"/>
<path d="M102 57H85V60H102V57Z" fill="#CCCCCC"/>
<path d="M102 83H85V87H102V83Z" fill="#CCCCCC"/>
<path d="M123.357 98H113.643C112.677 97.9989 111.751 97.5979 111.068 96.8852C110.385 96.1725 110.001 95.2062 110 94.1983V52.8017C110.001 51.7938 110.385 50.8275 111.068 50.1148C111.751 49.402 112.677 49.0011 113.643 49H123.357C124.323 49.0011 125.249 49.402 125.932 50.1148C126.615 50.8275 126.999 51.7938 127 52.8017V94.1983C126.999 95.2062 126.615 96.1725 125.932 96.8852C125.249 97.5979 124.323 97.9989 123.357 98Z" fill="#F2F2F2"/>
<path d="M127 57H110V60H127V57Z" fill="#CCCCCC"/>
<path d="M127 83H110V87H127V83Z" fill="#CCCCCC"/>
<path d="M137.143 167H126.857C125.835 166.999 124.854 166.598 124.131 165.885C123.408 165.173 123.001 164.206 123 163.198V121.802C123.001 120.794 123.408 119.827 124.131 119.115C124.854 118.402 125.835 118.001 126.857 118H137.143C138.165 118.001 139.146 118.402 139.869 119.115C140.592 119.827 140.999 120.794 141 121.802V163.198C140.999 164.206 140.592 165.173 139.869 165.885C139.146 166.598 138.165 166.999 137.143 167Z" fill="#F2F2F2"/>
<path d="M141 126H124V129H141V126Z" fill="#CCCCCC"/>
<path d="M141 152H124V155H141V152Z" fill="#CCCCCC"/>
<path d="M162.357 167H152.643C151.677 166.999 150.751 166.598 150.068 165.885C149.385 165.173 149.001 164.206 149 163.198V121.802C149.001 120.794 149.385 119.827 150.068 119.115C150.751 118.402 151.677 118.001 152.643 118H162.357C163.323 118.001 164.249 118.402 164.932 119.115C165.615 119.827 165.999 120.794 166 121.802V163.198C165.999 164.206 165.615 165.173 164.932 165.885C164.249 166.598 163.323 166.999 162.357 167Z" fill="#F2F2F2"/>
<path d="M166 126H149V129H166V126Z" fill="#CCCCCC"/>
<path d="M166 152H149V155H166V152Z" fill="#CCCCCC"/>
<path d="M188.143 167H177.857C176.835 166.999 175.854 166.598 175.131 165.885C174.408 165.173 174.001 164.206 174 163.198V121.802C174.001 120.794 174.408 119.827 175.131 119.115C175.854 118.402 176.835 118.001 177.857 118H188.143C189.165 118.001 190.146 118.402 190.869 119.115C191.592 119.827 191.999 120.794 192 121.802V163.198C191.999 164.206 191.592 165.173 190.869 165.885C190.146 166.598 189.165 166.999 188.143 167Z" fill="#F2F2F2"/>
<path d="M74 194H57V197H74V194Z" fill="#CCCCCC"/>
<path d="M96.1429 235H85.8571C84.8345 234.999 83.8541 234.598 83.131 233.885C82.4079 233.173 82.0012 232.206 82 231.198V189.802C82.0012 188.794 82.4079 187.827 83.131 187.115C83.8541 186.402 84.8345 186.001 85.8571 186H96.1429C97.1655 186.001 98.1459 186.402 98.869 187.115C99.5921 187.827 99.9988 188.794 100 189.802V231.198C99.9988 232.206 99.5921 233.173 98.869 233.885C98.1459 234.598 97.1655 234.999 96.1429 235Z" fill="#F2F2F2"/>
<path d="M99 194H82V197H99V194Z" fill="#CCCCCC"/>
<path d="M121.143 235H110.857C109.835 234.999 108.854 234.598 108.131 233.885C107.408 233.173 107.001 232.206 107 231.198V189.802C107.001 188.794 107.408 187.827 108.131 187.115C108.854 186.402 109.835 186.001 110.857 186H121.143C122.165 186.001 123.146 186.402 123.869 187.115C124.592 187.827 124.999 188.794 125 189.802V231.198C124.999 232.206 124.592 233.173 123.869 233.885C123.146 234.598 122.165 234.999 121.143 235Z" fill="#F2F2F2"/>
<path d="M125 220H108V224H125V220Z" fill="#CCCCCC"/>
<path d="M149.143 98H138.857C137.835 97.9989 136.854 97.5979 136.131 96.8852C135.408 96.1725 135.001 95.2062 135 94.1983V52.8017C135.001 51.7938 135.408 50.8275 136.131 50.1148C136.854 49.402 137.835 49.0011 138.857 49H149.143C150.165 49.0011 151.146 49.402 151.869 50.1148C152.592 50.8275 152.999 51.7938 153 52.8017V94.1983C152.999 95.2062 152.592 96.1725 151.869 96.8852C151.146 97.5979 150.165 97.9989 149.143 98Z" fill="#F2F2F2"/>
<path d="M152 83H136V87H152V83Z" fill="#CCCCCC"/>
<path d="M174.143 98H163.857C162.835 97.9989 161.854 97.5979 161.131 96.8852C160.408 96.1725 160.001 95.2062 160 94.1983V52.8017C160.001 51.7938 160.408 50.8275 161.131 50.1148C161.854 49.402 162.835 49.0011 163.857 49H174.143C175.165 49.0011 176.146 49.402 176.869 50.1148C177.592 50.8275 177.999 51.7938 178 52.8017V94.1983C177.999 95.2062 177.592 96.1725 176.869 96.8852C176.146 97.5979 175.165 97.9989 174.143 98Z" fill="#F2F2F2"/>
<path d="M178 83H161V87H178V83Z" fill="#CCCCCC"/>
<path d="M229 57H212V60H229V57Z" fill="#CCCCCC"/>
<path d="M229 83H212V87H229V83Z" fill="#CCCCCC"/>
<path d="M263.153 99H21.8467C21.6221 99 21.4068 98.9473 21.248 98.8535C21.0892 98.7598 21 98.6326 21 98.5C21 98.3674 21.0892 98.2402 21.248 98.1464C21.4068 98.0527 21.6221 98 21.8467 98H263.153C263.378 98 263.593 98.0527 263.752 98.1464C263.911 98.2402 264 98.3674 264 98.5C264 98.6326 263.911 98.7598 263.752 98.8535C263.593 98.9473 263.378 99 263.153 99Z" fill="#CCCCCC"/>
<path d="M263.153 236H21.8467C21.6221 236 21.4068 235.947 21.248 235.854C21.0892 235.76 21 235.633 21 235.5C21 235.367 21.0892 235.24 21.248 235.146C21.4068 235.053 21.6221 235 21.8467 235H263.153C263.378 235 263.593 235.053 263.752 235.146C263.911 235.24 264 235.367 264 235.5C264 235.633 263.911 235.76 263.752 235.854C263.593 235.947 263.378 236 263.153 236Z" fill="#CCCCCC"/>
<g clip-path="url(#clip1_972_18099)">
<path fill-rule="evenodd" clip-rule="evenodd" d="M435.757 249.099C437.379 248.899 439.11 248.97 440.618 249.616C443.825 250.99 444.737 254.814 444.693 257.922C444.645 261.267 443.941 264.922 446.462 267.617C447.62 268.856 449.061 269.805 450.198 271.067C451.414 272.415 452.368 273.958 453.074 275.615C454.37 278.659 455.007 282.238 453.821 285.431C452.777 288.242 450.151 290.779 450.718 293.976C451.31 297.31 454.641 299.859 456.724 302.343C459.081 305.154 461.251 308.746 461.607 312.432C461.949 315.965 460.425 319.537 458.087 322.208C453.416 327.543 446.394 330.159 439.313 330.143C436.307 330.136 432.904 329.999 430.309 328.368C429.508 327.864 429.085 327.299 428.608 326.513C428.181 325.808 427.616 325.35 426.963 324.851C425.527 323.756 424.49 322.279 423.829 320.627C421.259 314.208 423.313 306.267 426.909 300.567C427.761 299.217 428.459 297.917 428.045 296.308C427.613 294.628 426.551 293.112 425.612 291.668C424.684 290.24 423.625 288.879 422.899 287.335C422.14 285.718 421.926 284.025 422.06 282.256C422.312 278.932 423.734 275.865 425.747 273.192C427.685 270.617 429.961 268.153 429.967 264.78C429.972 261.204 427.604 258.023 428.613 254.388C429.03 252.883 429.87 251.338 431.222 250.436C432.519 249.57 434.231 249.287 435.757 249.099Z" fill="#005451" fill-opacity="0.35"/>
<path fill-rule="evenodd" clip-rule="evenodd" d="M434.697 254.817C434.727 254.337 435.292 254.049 435.736 254.174C436.321 254.339 436.31 254.89 436.294 255.382C436.247 256.892 436.463 258.36 436.823 259.825C437.571 262.872 438.953 265.679 440.047 268.606C441.141 271.531 441.654 274.55 441.013 277.644C440.408 280.562 439.458 283.404 438.839 286.325C438.293 288.899 437.712 291.615 438.543 294.183C439.343 296.655 441.111 298.668 442.384 300.902C445.019 305.526 446.188 310.657 446.344 315.936C446.416 318.388 446.351 320.862 445.788 323.266C445.463 324.651 445.027 326.522 443.852 327.478C443.31 327.919 442.383 328.071 441.926 327.418C441.498 326.806 441.874 325.858 442.01 325.206C442.599 322.381 442.717 319.494 442.576 316.626C442.44 313.847 442.115 311.073 441.248 308.42C440.444 305.958 439.222 303.746 437.785 301.592C436.32 299.396 434.796 297.197 434.191 294.596C433.576 291.954 434.076 289.266 434.744 286.674C435.45 283.933 436.376 281.271 437.333 278.605C438.265 276.006 438.596 273.548 438.081 270.828C437.064 265.455 434.342 260.412 434.697 254.817Z" fill="#005451"/>
<path fill-rule="evenodd" clip-rule="evenodd" d="M478.578 255.619C480.585 256.234 482.579 257.226 484.009 258.782C487.051 262.091 486.118 267.093 484.439 270.745C482.631 274.677 479.892 278.629 481.436 283.14C482.146 285.213 483.339 287.091 484.012 289.181C484.732 291.414 485.042 293.74 485.003 296.07C484.929 300.351 483.801 304.918 480.739 308.071C478.042 310.847 473.633 312.469 472.624 316.547C471.572 320.801 474.144 325.565 475.286 329.596C476.579 334.157 477.242 339.545 475.73 344.091C474.281 348.448 470.623 351.874 466.482 353.804C458.209 357.661 448.603 357.068 440.307 353.331C436.785 351.744 432.864 349.795 430.675 346.505C429.999 345.488 429.799 344.597 429.651 343.417C429.519 342.36 429.097 341.521 428.592 340.588C427.482 338.539 427.039 336.249 427.128 333.947C427.476 325.007 434.044 316.694 441.247 311.842C442.954 310.692 444.452 309.521 444.81 307.4C445.183 305.187 444.731 302.837 444.386 300.636C444.045 298.46 443.516 296.293 443.473 294.087C443.429 291.776 444.065 289.662 445.149 287.64C447.185 283.841 450.459 280.961 454.22 278.856C457.842 276.829 461.802 275.111 463.575 271.123C465.454 266.898 464.342 261.892 467.429 258.123C468.707 256.562 470.501 255.176 472.559 254.819C474.534 254.476 476.691 255.041 478.578 255.619Z" fill="#005451" fill-opacity="0.35"/>
<path fill-rule="evenodd" clip-rule="evenodd" d="M474.478 262.608C474.763 262.055 475.572 262.013 476.027 262.396C476.625 262.901 476.326 263.548 476.053 264.122C475.214 265.885 474.705 267.738 474.365 269.664C473.659 273.668 473.818 277.723 473.579 281.768C473.34 285.81 472.374 289.657 470.018 292.982C467.797 296.117 465.211 298.98 462.971 302.112C460.997 304.872 458.909 307.78 458.548 311.261C458.201 314.612 459.223 317.931 459.552 321.25C460.233 328.12 458.938 334.814 456.381 341.149C455.194 344.09 453.834 346.986 451.927 349.535C450.83 351.003 449.349 352.988 447.478 353.498C446.616 353.734 445.453 353.424 445.258 352.409C445.075 351.458 446.006 350.534 446.504 349.833C448.658 346.8 450.295 343.443 451.618 339.972C452.9 336.61 453.959 333.153 454.323 329.552C454.661 326.211 454.38 322.945 453.817 319.634C453.243 316.259 452.603 312.848 453.245 309.448C453.897 305.994 455.876 303.075 458.002 300.36C460.25 297.488 462.714 294.824 465.216 292.173C467.655 289.589 469.317 286.852 470.127 283.359C471.726 276.458 471.16 269.046 474.478 262.608Z" fill="#005451"/>
<path fill-rule="evenodd" clip-rule="evenodd" d="M416.534 281C419.871 281 422.805 282.785 424.826 285.319C427.193 288.285 427.671 291.906 428.632 295.441C429.11 297.2 429.933 298.946 431.374 300.142C432.685 301.228 434.349 301.446 435.918 301.977C439.054 303.038 441.586 305.595 442.586 308.714C443.806 312.519 442.514 316.356 442.736 320.212C442.941 323.754 446.4 325.963 449.184 327.661C451.928 329.335 454.401 330.902 455.228 334.163C456.104 337.621 456.398 341.482 455.184 344.899C453.163 350.588 447.247 353.093 441.53 353.481C436.342 353.834 429.819 353.28 425.923 349.48C423.592 347.205 422.748 344.025 422.853 340.86C422.918 338.892 423.304 336.942 423.803 335.041C424.157 333.693 424.635 332.351 424.772 330.958C425.134 327.253 421.74 326.541 418.852 325.524C415.182 324.231 412.612 321.788 410.825 318.386C409.161 315.218 408.463 311.662 409.461 308.174C409.97 306.393 410.894 304.777 412.147 303.403C412.699 302.798 413.477 302.293 413.974 301.658C414.439 301.064 414.338 300.295 414.178 299.6C413.437 296.389 411.13 293.73 410.305 290.525C409.56 287.632 410 284.031 412.621 282.165C413.753 281.358 415.15 281.009 416.534 281Z" fill="#005451" fill-opacity="0.35"/>
<path fill-rule="evenodd" clip-rule="evenodd" d="M421.081 289.367C424.618 293.169 425.58 298.329 425.862 303.329C426.02 306.133 425.855 309.091 426.672 311.811C427.37 314.139 429.007 315.918 430.695 317.6C434.092 320.986 437.881 324.428 438.875 329.328C439.458 332.203 439.065 335.173 439.87 338.017C440.603 340.602 441.893 343.142 443.461 345.325C444.725 347.083 446.37 348.428 447.751 350.067C448.172 350.567 448.776 351.304 448.602 352.01C448.398 352.837 447.355 353.098 446.614 352.968C444.888 352.666 443.435 351.002 442.306 349.792C440.655 348.023 439.252 346.121 438.112 343.987C436.847 341.617 435.828 339.102 435.392 336.443C434.94 333.685 435.165 330.81 434.133 328.163C432.397 323.709 428.186 321.08 425.141 317.608C421.347 313.282 421.913 307.898 422.302 302.577C422.515 299.652 422.727 296.35 421.263 293.68C420.704 292.66 419.458 291.71 419.218 290.552C418.998 289.49 420.199 288.418 421.081 289.367Z" fill="#005451"/>
<path fill-rule="evenodd" clip-rule="evenodd" d="M424.853 352.074C424.853 373.822 428.369 385.217 446.933 385.217C465.498 385.217 469.014 373.822 469.014 352.074H424.853Z" fill="#CCCCCC"/>
</g>
<path d="M409.225 298.733C406.773 307.706 398.375 313.263 398.375 313.263C398.375 313.263 393.952 304.272 396.404 295.3C398.855 286.327 407.254 280.77 407.254 280.77C407.254 280.77 411.677 289.76 409.225 298.733Z" fill="#005451"/>
<path d="M394.806 329.929C401.664 336.235 402.696 346.186 402.696 346.186C402.696 346.186 392.609 345.913 385.752 339.607C378.894 333.301 377.862 323.35 377.862 323.35C377.862 323.35 387.948 323.623 394.806 329.929Z" fill="#005451"/>
<path d="M385.237 237.084C390.125 245.017 388.418 254.875 388.418 254.875C388.418 254.875 378.785 251.87 373.896 243.936C369.008 236.003 370.715 226.145 370.715 226.145C370.715 226.145 380.348 229.15 385.237 237.084Z" fill="#005451"/>
<path d="M392.844 364.332L392.598 363.289L392.721 363.811L392.596 363.29C392.633 363.281 396.388 362.332 399.206 357.261C402.914 350.59 405.223 336.498 395.172 307.25C385.917 280.319 387.003 259.528 389.544 246.829C392.304 233.033 397.191 225.73 397.398 225.426L398.295 226.023C398.245 226.096 393.304 233.495 390.592 247.1C388.089 259.661 387.029 280.232 396.196 306.905C406.396 336.588 403.96 350.986 400.12 357.838C397.058 363.302 393.015 364.292 392.844 364.332Z" fill="#3F3D56"/>
<path d="M413.566 222.516C406.195 228.182 396.149 227.53 396.149 227.53C396.149 227.53 398.052 217.691 405.423 212.025C412.793 206.359 422.84 207.011 422.84 207.011C422.84 207.011 420.936 216.85 413.566 222.516Z" fill="#005451"/>
<path d="M370 379.083V363.301C370.002 361.732 370.61 360.228 371.693 359.118C372.775 358.009 374.242 357.385 375.773 357.383H411.691C413.221 357.385 414.688 358.009 415.77 359.118C416.853 360.228 417.461 361.732 417.463 363.301V379.083C417.461 380.652 416.853 382.156 415.77 383.266C414.688 384.375 413.221 384.999 411.691 385.001H375.773C374.242 384.999 372.775 384.375 371.693 383.266C370.61 382.156 370.002 380.652 370 379.083Z" fill="#CCCCCC"/>
<path d="M510.243 385H157.757C156.23 385 154.766 385.655 153.686 386.821C152.607 387.987 152 389.568 152 391.217C152 392.866 152.607 394.448 153.686 395.614C154.766 396.78 156.23 397.435 157.757 397.435H167.942V532.783C167.942 534.432 168.548 536.013 169.628 537.179C170.707 538.345 172.172 539 173.698 539C175.225 539 176.689 538.345 177.769 537.179C178.848 536.013 179.455 534.432 179.455 532.783V409.382L243.993 535.717C244.758 537.142 246.015 538.18 247.488 538.605C248.961 539.029 250.53 538.805 251.851 537.982C253.171 537.159 254.135 535.803 254.532 534.213C254.928 532.623 254.724 530.928 253.964 529.5L186.499 397.435H494.745V397.515L427.321 529.5C426.558 530.928 426.351 532.625 426.746 534.217C427.141 535.81 428.106 537.168 429.428 537.993C430.75 538.817 432.322 539.041 433.796 538.614C435.271 538.187 436.528 537.145 437.292 535.717L494.745 423.251V532.783C494.745 534.432 495.351 536.013 496.431 537.179C497.51 538.345 498.974 539 500.501 539C502.028 539 503.492 538.345 504.572 537.179C505.651 536.013 506.258 534.432 506.258 532.783V400.713L507.933 397.435H510.243C511.77 397.435 513.234 396.78 514.314 395.614C515.393 394.448 516 392.866 516 391.217C516 389.568 515.393 387.987 514.314 386.821C513.234 385.655 511.77 385 510.243 385Z" fill="#005451"/>
<path d="M516.088 508H489.912C489.405 507.997 488.919 506.769 488.561 504.588C488.202 502.406 433.501 511.085 433.5 508L488 408.637C488.001 405.552 488.202 402.594 488.561 400.412C488.919 398.231 489.405 397.003 489.912 397H516.088C516.595 397.003 517.081 398.231 517.439 400.412C517.798 402.594 517.999 405.552 518 408.637V496.363C517.999 499.448 517.798 502.406 517.439 504.588C517.081 506.769 516.595 507.997 516.088 508Z" fill="white"/>
<path d="M179.5 397.5H187.5L244 506.5L229.5 508.5L179.5 409.5V397.5Z" fill="white"/>
<path opacity="0.2" fill-rule="evenodd" clip-rule="evenodd" d="M374.154 183.313C375.413 182.689 377.09 183.412 376.391 185.061C375.641 186.826 372.869 186.848 371.304 186.813C371.46 186.805 371.965 185.186 372.138 184.941C372.647 184.22 373.381 183.697 374.154 183.313ZM359.664 215.477C359.219 215.857 359.627 215.513 359.664 215.477V215.477ZM375.617 191.509C376.37 192.078 376.405 193.083 375.79 193.764C375.057 194.575 373.72 194.546 372.722 194.467C372.27 194.432 369.86 194.242 370.431 193.851C370.387 193.868 370.296 193.908 370.197 193.962C370.144 194.153 370.089 194.344 370.031 194.533C370.045 194.542 370.057 194.55 370.072 194.558C370.056 194.551 370.044 194.544 370.03 194.536C369.449 196.432 368.623 198.238 367.541 199.927C367.946 199.769 368.365 199.649 368.789 199.596C370.047 199.438 372.692 200.404 371.285 202.062C369.935 203.651 367.836 201.948 366.305 201.714C364.819 203.765 363.181 205.732 361.464 207.632C361.569 207.665 361.661 207.733 361.714 207.838C362.403 207.492 363.12 206.998 363.757 206.863C364.677 206.67 366.562 206.552 367.256 207.366C368.11 208.367 367.194 209.181 366.184 209.373C364.72 209.652 362.804 208.946 361.396 208.468C361.234 208.496 361.059 208.45 360.954 208.322C360.922 208.312 360.891 208.302 360.861 208.293C359.123 210.184 357.318 212.013 355.524 213.802C355.543 213.801 355.562 213.8 355.582 213.799C356.05 213.495 356.551 213.246 357.095 213.115C358.353 212.811 359.833 212.809 360.854 213.709C361.87 214.605 362.23 216.174 361.177 217.181C359.07 219.198 355.97 214.603 354.908 214.412C353.085 216.211 351.158 217.892 349.2 219.539C349.422 219.472 349.65 219.423 349.886 219.4C351.805 219.217 356.308 221.543 353.952 223.835C351.898 225.832 349.525 221.992 347.872 220.649C346.027 222.184 344.172 223.708 342.369 225.292C343.352 225.034 344.302 224.995 345.355 225.31C346.445 225.636 348.204 226.449 347.514 227.906C346.813 229.388 344.7 228.715 343.6 228.245C343 227.989 341.798 227.124 340.741 226.76C337.864 229.448 335.372 232.409 333.484 235.895C332.306 238.073 331.412 240.398 330.782 242.789C330.379 244.314 329.587 246.877 329.745 248.862C328.992 244.889 330.359 240.115 331.831 236.561C333.184 233.294 335.208 230.426 337.578 227.843C336.985 226.074 331.982 223.524 334.974 221.878C336.563 221.008 338.19 222.45 338.536 223.977C338.774 225.027 338.41 226.346 338.024 227.365C338.77 226.578 339.545 225.816 340.343 225.079C341.447 224.061 342.577 223.073 343.719 222.097C341.84 220.35 340.064 215.356 342.584 214.538C346.306 213.333 344.511 220.147 344.251 221.425C344.177 221.429 344.119 221.407 344.077 221.36C344.098 221.477 344.122 221.602 344.152 221.728C346.336 219.869 348.552 218.047 350.695 216.144C350.502 216.003 350.196 215.463 349.955 215.176C349.411 214.529 348.89 213.854 348.51 213.097C347.91 211.9 347.331 209.992 348.925 209.287C350.658 208.519 351.481 210.678 351.492 211.966C351.5 212.856 351.254 213.702 351.126 214.576C351.086 214.848 351.239 216.075 350.865 215.547C350.882 215.742 350.885 215.883 350.876 215.983C351.261 215.64 351.642 215.292 352.022 214.943C352.004 214.899 351.991 214.851 351.988 214.795C351.968 214.411 352.359 214.263 352.632 214.375C353.133 213.904 353.629 213.428 354.116 212.941C355.148 211.911 356.195 210.852 357.235 209.77C357.009 209.578 357.099 209.312 356.888 209.109C356.678 208.906 356.263 208.794 356.016 208.606C355.393 208.131 354.877 207.44 354.504 206.76C353.889 205.635 353.093 203.277 354.894 202.74C356.751 202.186 357.692 204.456 357.81 205.876C357.834 206.151 357.624 208.629 357.464 209.529C359.388 207.518 361.281 205.431 362.995 203.309C362.476 203.304 361.003 202.252 360.706 201.964C359.98 201.264 358.825 199.715 360.1 198.895C361.233 198.167 362.628 199.219 363.112 200.243C363.191 200.411 363.471 201.98 363.493 202.683C364.203 201.783 364.88 200.878 365.509 199.97C365.929 199.366 366.322 198.746 366.689 198.113C366.601 198.064 366.518 197.977 366.44 197.87C364.551 197.553 362.144 194.638 364.363 193.622C365.42 193.139 366.565 194.134 367.082 194.95C367.188 195.116 367.359 195.955 367.499 196.617C368.556 194.52 369.364 192.3 369.979 190.024C369.814 189.984 369.675 189.86 369.657 189.646C368.74 189.129 368.016 188.699 367.376 187.704C366.979 187.086 366.263 185.675 367.432 185.331C368.953 184.884 369.907 187.182 370.031 188.314C370.046 188.446 370.045 188.828 370.04 189.178C370.093 189.171 370.146 189.172 370.198 189.181C370.548 187.772 370.828 186.345 371.05 184.915C370.22 184.651 370.079 180.337 370.632 179.723C371.868 178.346 372.739 180.333 372.672 181.383C372.594 182.621 372.026 183.748 371.35 184.748C371.278 184.854 371.299 184.849 371.28 184.701C371.27 184.774 371.245 184.828 371.208 184.867C371.243 185.519 371.31 186.186 371.277 186.763C371.183 188.414 370.988 190.076 370.705 191.706C370.636 192.103 370.557 192.496 370.469 192.886C371.136 192.323 372.036 191.823 372.388 191.666C373.302 191.261 374.71 190.823 375.617 191.509ZM329.595 248.706C329.639 249.236 329.77 249.721 330.028 250.118C329.839 249.664 329.697 249.192 329.595 248.706Z" fill="#005451"/>
<g opacity="0.5">
<path fill-rule="evenodd" clip-rule="evenodd" d="M366.879 235.854C368.386 233.708 371.181 228.257 373.301 227.491C374.666 226.997 374.268 232.106 374.285 233.08C374.351 236.849 373.983 240.595 373.53 244.332C372.713 251.073 370.041 257.076 366.377 262.812C364.492 265.764 362.28 268.752 359.217 270.594C357.807 271.442 356.111 271.584 354.718 272.315C353.097 273.166 353.98 272.478 353.249 274.167C352.234 276.511 351.91 279.536 351.44 282.037C349.284 293.52 344.064 354.224 344.969 365.905C345.049 366.94 343.605 367.188 343.533 365.924C343.149 359.222 346.466 312.813 348.14 297.636C349.813 282.459 351.507 269.051 353.205 263.8C355.265 257.43 358.986 249.769 362.083 243.829C363.521 241.069 365.089 238.404 366.879 235.854Z" fill="#005451"/>
<path fill-rule="evenodd" clip-rule="evenodd" d="M378.059 310.292C381.978 307.417 386.221 312.844 382.674 315.719C380.714 317.309 378.664 316.743 377.51 315.419C376.761 316.331 376.06 317.285 375.386 318.091C373.333 320.547 371.393 323.061 369.539 325.633C365.688 330.978 362.387 336.625 358.936 342.168C355.53 347.639 352.151 353.139 349.064 358.748C346.449 363.501 342.964 369.092 342.068 374.303C343.427 363.252 348.582 352.631 354.72 342.889C360.808 333.227 367.796 322.676 377.223 315.051C376.263 313.641 376.237 311.628 378.059 310.292Z" fill="#005451"/>
<path fill-rule="evenodd" clip-rule="evenodd" d="M303.686 283.343C305.879 283.772 309.463 288.729 311.271 290.618C313.419 292.863 315.369 295.256 317.206 297.763C321.162 303.159 324.699 308.896 327.707 314.878C332.612 324.631 336.54 334.643 339.392 345.263C341.137 351.765 342.267 358.503 342.937 365.194C343.064 366.456 344.388 376.185 342.48 376.447C340.764 376.683 341.294 369.06 341.211 368.023C340.275 356.323 337.472 344.94 333.573 333.913C332.724 331.511 331.935 328.569 330.576 326.407C329.598 324.85 330.569 325.393 328.85 324.804C327.375 324.297 325.693 324.421 324.181 323.801C320.898 322.456 318.269 319.844 315.964 317.216C311.486 312.11 307.937 306.586 306.087 300.044C305.061 296.416 304.118 292.767 303.594 289.027C303.459 288.061 302.273 283.067 303.686 283.343Z" fill="#005451"/>
<path fill-rule="evenodd" clip-rule="evenodd" d="M312.341 200.854C320.602 215.171 327.391 230.898 331.775 246.827C334.431 256.478 336.289 266.382 338.134 276.214C340.992 291.437 343.694 306.66 344.463 322.154C345.237 337.737 346.766 355.712 341.66 370.721C344.21 355.482 341.782 339.262 341.352 323.928C341.146 316.608 340.551 309.36 339.77 302.083C339.012 295.023 337.773 287.998 336.62 280.994C336.058 277.583 335.468 274.177 334.868 270.773C334.688 269.758 334.613 266.744 333.968 266.05C333.319 265.352 330.008 265.067 328.969 264.555C326.876 263.523 324.907 262.057 323.165 260.508C319.825 257.538 316.919 253.659 314.625 249.834C309.319 240.984 307.197 230.185 307.305 219.936C307.325 217.946 310.528 196.518 309.242 196.223C309.319 196.132 309.392 196.039 309.461 195.941C310.435 197.571 311.391 199.211 312.341 200.854Z" fill="#005451"/>
<path fill-rule="evenodd" clip-rule="evenodd" d="M401.511 252.49C401.639 252.306 402.469 251.028 402.051 251.11C402.901 250.944 400.881 252.519 403 251.553C401.994 252.502 402.575 253.736 402.588 255.014C402.61 257.089 402.263 259.148 401.871 261.178C401.253 264.388 400.333 267.509 398.996 270.495C396.083 277.001 391.137 283.265 385.265 287.333C382.366 289.341 379.525 290.025 376.219 290.95C374.13 291.534 373.965 292.613 372.856 294.638C370.549 298.856 368.282 303.058 366.247 307.418C363.816 312.624 361.457 317.836 359.232 323.134C351.735 340.979 345.633 359.468 342.428 378.601C342.35 367.326 344.96 355.713 348.253 344.966C350.651 337.136 353.774 329.588 357.104 322.116C357.911 320.306 359.134 317.978 359.477 315.979C359.717 314.579 358.983 313.232 358.647 311.757C357.338 306.014 357.431 299.579 358.581 293.804C359.849 287.436 363.516 284.481 369.719 283.579C371.987 283.249 374.871 283.37 376.951 282.403C379.217 281.351 380.152 277.891 381.441 275.671C384.902 269.705 389.014 263.984 393.737 258.957C395.044 257.565 396.451 256.281 397.942 255.091C398.883 254.34 400.87 253.415 401.511 252.49Z" fill="#005451"/>
</g>
<path fill-rule="evenodd" clip-rule="evenodd" d="M327.123 355.793H358.876C360.304 355.793 361.461 356.982 361.461 358.448C361.461 358.578 361.452 358.707 361.434 358.836L358.979 375.93C358.231 381.141 353.878 385.002 348.75 385.002H337.25C332.122 385.002 327.768 381.141 327.02 375.93L324.566 358.836C324.358 357.385 325.334 356.035 326.746 355.821C326.871 355.802 326.997 355.793 327.123 355.793Z" fill="#CCCCCC"/>
<path fill-rule="evenodd" clip-rule="evenodd" d="M285.257 73.9053C286.307 73.3891 287.707 73.9878 287.123 75.3525C286.497 76.8139 284.184 76.8319 282.877 76.803C283.008 76.7962 283.429 75.456 283.573 75.2535C283.999 74.6562 284.611 74.2232 285.257 73.9053ZM273.154 100.107C272.889 100.331 273.133 100.128 273.154 100.107V100.107ZM286.268 80.5152C286.883 80.9809 286.912 81.8032 286.41 82.3597C285.812 83.0223 284.721 82.9982 283.906 82.9336C283.537 82.9044 281.569 82.7482 282.035 82.4289C281.999 82.4423 281.924 82.4749 281.844 82.5193C281.801 82.6756 281.756 82.8314 281.708 82.9865C281.72 82.9932 281.73 83.0004 281.742 83.007C281.729 83.0012 281.72 82.9949 281.708 82.989C281.234 84.5391 280.561 86.0151 279.678 87.3959C280.008 87.267 280.35 87.1695 280.697 87.1261C281.724 86.9974 283.884 87.7883 282.736 89.1435C281.634 90.4426 279.919 89.0488 278.67 88.8566C277.457 90.5338 276.12 92.1411 274.719 93.6947C274.805 93.7213 274.881 93.7768 274.924 93.8633C275.486 93.5807 276.071 93.1764 276.592 93.0669C277.342 92.9092 278.881 92.8136 279.448 93.4795C280.146 94.2982 279.398 94.9633 278.574 95.1203C277.379 95.3481 275.814 94.7692 274.664 94.3781C274.532 94.4012 274.389 94.363 274.303 94.2587C274.277 94.2505 274.252 94.2424 274.227 94.2345C272.809 95.7805 271.336 97.2755 269.872 98.7377C269.887 98.7369 269.903 98.7359 269.919 98.7351C270.301 98.4868 270.711 98.2831 271.155 98.1765C272.182 97.9283 273.39 97.9271 274.224 98.6637C275.054 99.3972 275.348 100.68 274.489 101.503C272.77 103.152 270.237 99.3932 269.369 99.2363C267.882 100.707 266.309 102.08 264.711 103.426C264.892 103.372 265.078 103.331 265.271 103.313C266.837 103.165 270.515 105.069 268.592 106.942C266.917 108.574 264.977 105.432 263.627 104.333C262.121 105.588 260.607 106.834 259.136 108.129C259.938 107.917 260.714 107.886 261.574 108.144C262.464 108.411 263.901 109.077 263.338 110.268C262.766 111.48 261.041 110.929 260.142 110.544C259.652 110.334 258.67 109.626 257.807 109.328C255.459 111.525 253.426 113.945 251.886 116.796C250.925 118.576 250.195 120.477 249.682 122.432C249.354 123.679 248.709 125.774 248.838 127.398C248.222 124.148 249.336 120.245 250.536 117.34C251.639 114.668 253.291 112.323 255.225 110.212C254.74 108.765 250.654 106.678 253.097 105.334C254.394 104.623 255.722 105.802 256.006 107.052C256.2 107.91 255.904 108.989 255.589 109.822C256.197 109.178 256.83 108.556 257.482 107.954C258.383 107.121 259.305 106.313 260.236 105.516C258.702 104.087 257.249 100.002 259.307 99.3338C262.345 98.3501 260.882 103.922 260.67 104.966C260.61 104.97 260.563 104.952 260.529 104.913C260.546 105.009 260.566 105.111 260.59 105.214C262.372 103.695 264.181 102.206 265.93 100.651C265.773 100.535 265.522 100.094 265.325 99.8593C264.881 99.33 264.456 98.777 264.145 98.1578C263.654 97.1792 263.181 95.6184 264.482 95.0428C265.897 94.4157 266.569 96.181 266.579 97.2342C266.586 97.9625 266.386 98.6544 266.281 99.3684C266.249 99.591 266.374 100.595 266.068 100.163C266.083 100.322 266.085 100.437 266.078 100.519C266.392 100.239 266.703 99.9548 267.013 99.6691C266.999 99.6331 266.988 99.5937 266.985 99.5481C266.969 99.2341 267.288 99.1132 267.511 99.2052C267.92 98.8203 268.324 98.4306 268.722 98.0332C269.564 97.1912 270.418 96.3252 271.267 95.4407C271.083 95.284 271.156 95.0669 270.984 94.9005C270.812 94.7344 270.473 94.6426 270.271 94.4884C269.763 94.1002 269.341 93.5347 269.036 92.9782C268.533 92.0587 267.883 90.1297 269.353 89.6914C270.869 89.239 271.638 91.0958 271.735 92.2568C271.754 92.4817 271.585 94.5082 271.454 95.244C273.025 93.6003 274.569 91.8949 275.968 90.1598C275.544 90.1559 274.341 89.2945 274.098 89.0594C273.505 88.4861 272.562 87.2192 273.602 86.5488C274.526 85.9542 275.666 86.8155 276.062 87.6525C276.127 87.7903 276.356 89.0731 276.374 89.6486C276.953 88.9128 277.505 88.1727 278.019 87.4302C278.362 86.9365 278.682 86.4299 278.982 85.9124C278.91 85.8719 278.842 85.8012 278.778 85.7133C277.235 85.4539 275.269 83.0687 277.081 82.2389C277.943 81.8443 278.879 82.6588 279.301 83.3257C279.388 83.4621 279.528 84.1481 279.642 84.6891C280.504 82.9748 281.163 81.16 281.664 79.2992C281.53 79.2662 281.416 79.1645 281.401 78.9897C280.652 78.5665 280.061 78.2142 279.538 77.4006C279.214 76.8952 278.629 75.7406 279.583 75.4601C280.825 75.0951 281.605 76.975 281.706 77.9009C281.718 78.0084 281.718 78.321 281.714 78.6074C281.757 78.6016 281.8 78.6022 281.843 78.6097C282.128 77.4575 282.356 76.2905 282.537 75.1214C281.859 74.9052 281.742 71.3773 282.193 70.875C283.202 69.7502 283.914 71.375 283.86 72.2337C283.796 73.2463 283.333 74.1674 282.782 74.9848C282.723 75.0714 282.74 75.0672 282.724 74.9466C282.716 75.0062 282.696 75.0502 282.666 75.082C282.694 75.615 282.75 76.1607 282.723 76.6324C282.647 77.983 282.488 79.3415 282.258 80.6748C282.202 80.999 282.137 81.3206 282.065 81.6395C282.61 81.1795 283.345 80.7708 283.632 80.643C284.378 80.3116 285.528 79.9538 286.268 80.5152ZM248.75 127.403C248.785 127.874 248.871 128.305 249.031 128.66C248.911 128.256 248.819 127.835 248.75 127.403Z" fill="#005451"/>
<g opacity="0.7">
<path fill-rule="evenodd" clip-rule="evenodd" d="M231.759 105.591C234.676 105.441 238.284 107.129 238.595 110.272C238.821 112.555 238.751 114.832 239.101 117.113C239.381 118.935 239.972 120.684 240.779 122.344C241.555 123.941 243.165 125.299 243.584 127.005C243.851 128.091 243.701 129.62 243.333 130.682C242.886 131.975 243.124 131.873 244.015 132.957C245.763 135.082 247.336 137.261 248.449 139.799C250.051 143.454 251.102 147.727 250.507 151.728C250.432 152.236 250.342 154.06 249.636 154.187C248.847 154.33 249.216 153.287 249.258 152.95C249.526 150.8 249.765 148.922 249.441 146.739C248.193 138.316 242.096 132.766 238.127 125.618C237.908 125.249 237.448 124.371 237.128 123.792C236.622 122.878 236.113 121.138 235.429 120.46C234.14 119.183 235.325 121.75 235.576 122.241C235.894 122.861 236.243 123.52 236.569 124.063C238.058 126.582 239.72 129.331 241.259 131.927C234.606 133.429 229.921 125.502 228.136 120.291C226.665 115.997 224.905 105.959 231.759 105.591Z" fill="#005451"/>
<path fill-rule="evenodd" clip-rule="evenodd" d="M270.858 97.6194C265.981 98.0029 262.85 101.192 261.393 105.653C260.608 108.057 260.518 110.527 260.081 112.998C259.424 116.715 258.012 119.531 255.251 122.18C254.395 123 253.765 123.842 253.317 124.743C252.428 125.642 251.654 126.66 251.085 127.904C250.359 129.494 250.153 131.4 250.992 132.985C251.217 133.411 251.78 134.266 252.363 134.654C250.18 139.263 248.98 144.31 249.115 149.351C249.197 152.394 249.346 155.438 249.521 158.477C249.568 159.293 249.836 160.641 250.239 159.272C250.608 158.02 250.146 156.055 250.103 154.747C249.895 148.377 249.717 142.584 252.363 136.632C252.64 136.008 252.934 135.39 253.241 134.776C253.259 134.765 253.275 134.753 253.292 134.741C253.304 134.75 253.315 134.759 253.326 134.768C253.346 134.733 253.373 134.692 253.404 134.646C253.492 134.556 253.568 134.443 253.641 134.316C253.876 133.994 254.142 133.615 254.143 133.408C254.143 133.406 254.142 133.404 254.142 133.402C255.78 130.752 257.656 128.248 259.573 125.793C259.558 125.811 261.651 122.986 261.327 124.548C261.172 125.301 259.632 126.734 259.01 127.532C257.635 129.305 256.02 131.553 254.678 133.726C254.497 133.829 254.242 134.334 254.057 134.71C253.955 134.901 253.86 135.093 253.767 135.261C258.523 136.818 262.222 133.681 264.745 130.032C264.748 130.028 264.75 130.024 264.753 130.019C265.521 129.011 266.307 128.01 267.29 127.213C268.929 125.883 270.684 125.649 272.617 124.994C277.887 123.209 280.127 116.44 280.839 111.417C281.642 105.75 277.714 97.0607 270.858 97.6194Z" fill="#005451"/>
<path fill-rule="evenodd" clip-rule="evenodd" d="M261.225 81.7515C256.22 86.9146 253.802 94.0759 251.887 100.808C249.749 108.327 248.336 115.963 248.282 123.781C248.247 128.917 248.106 134.085 248.408 139.216C248.515 141.038 248.699 142.863 248.99 144.665C249.014 144.813 249.666 148.838 250.29 147.9C250.644 147.367 249.621 143.725 249.544 143.119C249.109 139.703 249.008 136.261 249.029 132.82C249.064 127.155 248.896 121.519 249.475 115.874C249.561 115.031 249.63 114.146 249.832 113.322C250.046 112.445 249.773 112.828 250.472 112.481C251.15 112.143 251.989 112.192 252.693 111.768C255.486 110.09 256.915 105.777 258.028 102.948C259.3 99.7124 260.073 96.2621 260.69 92.8571C261.143 90.3553 261.468 87.8688 261.651 85.3348C261.709 84.5362 261.712 83.7011 261.871 82.9158C261.913 82.704 262.127 82.3293 262.12 82.1417C262.103 81.7447 261.861 81.5112 261.842 81.1776C261.632 81.3645 261.426 81.556 261.225 81.7515Z" fill="#005451"/>
<path fill-rule="evenodd" clip-rule="evenodd" d="M233.934 150.539C233.934 159.078 240.917 165.999 249.532 165.999C258.147 165.999 265.13 159.078 265.13 150.539" fill="#CCCCCC"/>
<path fill-rule="evenodd" clip-rule="evenodd" d="M250.783 150.588H249.959C250.016 149.563 250.092 148.54 250.265 147.526C250.926 143.65 252.993 137.957 257.527 137.328C257.695 137.304 258.31 137.3 259.055 137.343C259.409 137.148 259.804 137.03 260.221 137.002C264.082 136.72 268.393 139.807 270.255 143.02C271.756 145.61 271.503 149.011 270.576 151.762C269.955 153.604 268.6 156.231 266.34 156.257C263.513 156.289 263.377 152.825 263.322 150.8C263.249 148.108 262.906 145.763 260.766 143.929C260.267 143.501 259.722 143.125 259.218 142.704C258.429 142.044 257.558 141.368 257.456 140.277C257.316 138.771 258.173 138.5 259.483 138.78C259.706 138.827 261.955 139.827 261.622 139.037C261.52 138.795 261.149 138.604 260.68 138.461C259.468 138.33 258.022 138.178 257.606 138.269C253.12 139.245 251.373 145.404 250.909 149.317C250.859 149.74 250.818 150.163 250.783 150.588Z" fill="#005451"/>
</g>
</g>
</g>
<defs>
<filter id="filter0_d_972_18099" x="0" y="0" width="510" height="510" filterUnits="userSpaceOnUse" color-interpolation-filters="sRGB">
<feFlood flood-opacity="0" result="BackgroundImageFix"/>
<feColorMatrix in="SourceAlpha" type="matrix" values="0 0 0 0 0 0 0 0 0 0 0 0 0 0 0 0 0 0 127 0" result="hardAlpha"/>
<feOffset/>
<feGaussianBlur stdDeviation="2.5"/>
<feComposite in2="hardAlpha" operator="out"/>
<feColorMatrix type="matrix" values="0 0 0 0 0 0 0 0 0 0 0 0 0 0 0 0 0 0 0.25 0"/>
<feBlend mode="normal" in2="BackgroundImageFix" result="effect1_dropShadow_972_18099"/>
<feBlend mode="normal" in="SourceGraphic" in2="effect1_dropShadow_972_18099" result="shape"/>
</filter>
<clipPath id="clip0_972_18099">
<rect x="5" y="5" width="500" height="500" rx="12" fill="white"/>
</clipPath>
<clipPath id="clip1_972_18099">
<rect width="77" height="136" fill="white" transform="translate(409 249)"/>
</clipPath>
</defs>
</svg>
