<?xml version="1.0" standalone="no"?>
<!DOCTYPE svg PUBLIC "-//W3C//DTD SVG 20010904//EN"
 "http://www.w3.org/TR/2001/REC-SVG-20010904/DTD/svg10.dtd">
<svg version="1.0" xmlns="http://www.w3.org/2000/svg"
 width="1024.000000pt" height="1024.000000pt" viewBox="0 0 1024.000000 1024.000000"
 preserveAspectRatio="xMidYMid meet">
<metadata>
Created by potrace 1.14, written by Peter Selinger 2001-2017
</metadata>
<g transform="translate(0.000000,1024.000000) scale(0.100000,-0.100000)"
fill="#000000" stroke="none">
<path d="M3449 10236 c-2 -2 -44 -7 -94 -10 -49 -3 -101 -8 -115 -10 -14 -3
-47 -7 -75 -11 -215 -27 -506 -97 -712 -170 -54 -19 -106 -39 -115 -45 -10 -5
-23 -10 -29 -10 -16 0 -140 -55 -270 -120 -153 -77 -292 -158 -408 -236 -51
-35 -97 -64 -102 -64 -5 0 -9 -3 -9 -7 0 -5 -17 -19 -38 -33 -35 -24 -156
-120 -232 -185 -111 -95 -348 -343 -450 -471 -99 -124 -273 -383 -327 -486
-17 -32 -34 -54 -39 -50 -5 4 -6 3 -2 -2 4 -4 -22 -66 -58 -137 -35 -70 -64
-130 -64 -133 0 -2 -10 -26 -22 -53 -11 -26 -22 -52 -23 -58 -2 -5 -13 -34
-25 -64 -26 -67 -70 -191 -75 -211 -1 -8 -16 -62 -33 -120 -27 -96 -63 -243
-67 -280 -2 -18 -16 -97 -21 -125 -3 -11 -7 -38 -10 -60 -3 -22 -7 -55 -10
-73 -2 -19 -7 -75 -12 -125 -9 -120 -9 -3416 0 -3527 5 -47 11 -112 14 -145 4
-33 7 -72 8 -88 1 -15 3 -27 6 -27 3 0 6 -10 7 -22 1 -13 7 -50 13 -83 6 -33
13 -69 15 -80 2 -11 4 -20 5 -20 1 0 3 -9 5 -20 4 -21 22 -94 50 -205 9 -36
20 -74 25 -85 5 -11 14 -38 20 -60 7 -22 18 -54 26 -72 8 -17 14 -36 14 -42 0
-6 7 -27 16 -48 9 -21 20 -47 24 -58 5 -11 15 -37 25 -58 9 -20 13 -42 9 -49
-4 -6 -3 -8 2 -5 6 3 16 -9 23 -26 8 -18 44 -93 82 -168 37 -75 65 -140 61
-144 -4 -5 -1 -4 7 0 11 6 13 4 8 -9 -4 -10 -3 -15 3 -11 6 4 16 -6 23 -22 7
-15 20 -40 30 -55 10 -15 15 -33 11 -39 -4 -8 -3 -9 4 -5 7 4 18 -7 28 -26 9
-18 20 -35 23 -38 16 -13 74 -104 74 -116 0 -7 4 -11 8 -8 4 2 13 -6 20 -18 7
-13 31 -46 53 -74 79 -98 85 -107 80 -116 -3 -5 -1 -7 3 -6 5 2 29 -19 54 -47
64 -73 168 -181 218 -228 24 -23 58 -56 75 -72 17 -17 67 -62 111 -100 44 -38
79 -73 77 -78 -1 -5 2 -6 7 -3 5 4 34 -13 63 -36 29 -24 77 -59 106 -77 30
-19 59 -39 65 -46 7 -6 20 -14 30 -18 10 -4 15 -11 12 -17 -3 -5 0 -7 7 -5 8
3 23 -2 33 -12 11 -10 37 -27 58 -38 20 -11 37 -23 37 -28 0 -4 4 -6 8 -3 5 3
18 -3 28 -12 10 -10 23 -19 27 -19 5 0 28 -11 52 -24 37 -20 42 -26 32 -39
-10 -13 -10 -13 4 -2 14 10 26 8 73 -16 30 -16 52 -33 48 -37 -4 -5 -2 -5 5
-2 6 4 53 -13 105 -38 51 -25 99 -45 106 -45 7 0 10 -5 6 -12 -4 -7 -3 -8 5
-4 14 9 81 -12 81 -25 0 -5 3 -8 8 -7 12 4 132 -34 128 -41 -2 -3 9 -7 26 -7
17 -1 33 -5 37 -10 3 -5 19 -10 36 -12 16 -2 32 -7 35 -10 3 -4 14 -8 25 -8
39 -3 125 -30 118 -38 -4 -4 0 -4 9 -1 8 3 44 -1 79 -10 35 -10 74 -17 86 -17
13 0 21 -3 19 -7 -2 -3 21 -7 52 -8 31 -2 58 -6 61 -10 3 -5 17 -8 31 -9 60
-2 106 -8 117 -16 6 -5 14 -5 18 2 3 6 10 8 16 5 26 -17 310 -20 1854 -20
1664 0 1907 2 1898 18 -3 4 10 7 29 7 40 -1 236 33 336 59 41 11 85 18 98 16
13 -1 22 1 19 5 -4 7 187 64 217 64 9 0 14 4 12 8 -3 4 2 8 11 8 14 0 148 47
200 70 11 5 62 28 113 50 51 22 114 51 140 65 26 14 50 25 55 25 4 0 13 5 20
11 7 5 57 35 112 66 137 76 132 73 205 122 85 58 234 163 240 171 3 3 27 24
55 45 27 22 56 46 63 53 8 7 19 9 25 5 7 -3 9 -2 4 2 -8 10 31 55 47 55 6 0
17 9 24 20 7 12 18 18 24 14 6 -4 8 -3 5 3 -7 11 46 66 56 58 4 -3 5 -2 2 2
-3 3 33 45 78 92 106 109 163 172 214 238 23 29 44 49 48 45 4 -4 5 -2 3 4 -1
6 20 42 48 80 182 246 334 520 464 839 17 42 59 162 71 202 7 24 16 40 22 36
6 -3 7 -1 3 5 -9 15 4 63 15 56 5 -3 6 2 3 11 -4 8 1 37 9 63 8 26 23 84 33
130 10 45 21 82 25 82 5 0 6 6 3 14 -3 8 1 50 10 93 8 43 18 103 22 133 3 30
8 64 10 75 2 11 7 63 11 115 10 122 10 3447 1 3560 -28 326 -112 691 -228 985
-43 111 -69 171 -97 230 -18 38 -31 75 -28 83 2 7 1 11 -4 7 -5 -3 -19 16 -32
42 -43 88 -130 237 -214 364 -387 585 -973 1070 -1623 1343 -308 129 -611 210
-985 263 -111 15 -280 17 -1843 20 -946 2 -1723 1 -1725 -1z"/>
<path d="M9820 1886 c0 -2 8 -10 18 -17 15 -13 16 -12 3 4 -13 16 -21 21 -21
13z"/>
<path d="M1836 407 c3 -10 9 -15 12 -12 3 3 0 11 -7 18 -10 9 -11 8 -5 -6z"/>
</g>
</svg>
