<svg width="30" height="30" viewBox="0 0 30 30" fill="none" xmlns="http://www.w3.org/2000/svg">
<g id="Icon">
<g id="Vector">
<path fill-rule="evenodd" clip-rule="evenodd" d="M14 1.00586C6.68462 1.00586 1 6.6905 1 14.0059C1 21.3212 6.68462 27.0059 14 27.0059C21.3154 27.0059 27 21.3212 27 14.0059C27 6.6905 21.3154 1.00586 14 1.00586ZM2 14.0059C2 7.73984 7.73396 2.00586 14 2.00586C20.266 2.00586 25 7.73984 25 14.0059C25 20.2718 20.266 25.0059 14 25.0059C7.73396 25.0059 2 20.2718 2 14.0059ZM14 7.00586C14.5523 7.00586 15 7.45358 15 8.00586V13.0059H20C20.5524 13.0059 21 13.4536 21 14.0059C21 14.5581 20.5524 15.0059 20 15.0059H15V20.0059C15 20.5581 14.5523 21.0059 14 21.0059C13.4477 21.0059 13 20.5581 13 20.0059V15.0059H8C7.44772 15.0059 7 14.5581 7 14.0059C7 13.4536 7.44772 13.0059 8 13.0059H13V8.00586C13 7.45358 13.4477 7.00586 14 7.00586Z" fill="#005451"/>
</g>
</g>
</svg>
