<svg width="16" height="16" viewBox="0 0 16 16" fill="none" xmlns="http://www.w3.org/2000/svg">
<g id="Icon">
<g id="Vector">
<path fill-rule="evenodd" clip-rule="evenodd" d="M0 7C0 3.09846 3.09846 0 7 0C10.9015 0 14 3.09846 14 7C14 10.9015 10.9015 14 7 14C3.09846 14 0 10.9015 0 7ZM7 1C3.65811 1 1 3.65811 1 7C1 10.3419 3.65811 13 7 13C10.3419 13 13 10.3419 13 7C13 3.65811 10.3419 1 7 1ZM9 4C9.20823 4.20828 9.20823 4.79172 9 5L7 7L9 8C9.20823 8.20828 9.20823 8.79172 9 9C8.79172 9.20827 8.20828 9.20827 8 9L7 7L5 9C4.79172 9.20827 4.20828 9.20827 4 9C3.79172 8.79172 3.79172 8.20828 4 8L6 7L4 5C3.79172 4.79172 3.79172 4.20828 4 4C4.20828 3.79172 4.79172 3.79172 5 4L7 6L8 4C8.20828 3.79172 8.79172 3.79172 9 4Z" fill="#005451"/>
</g>
</g>
</svg>
