<svg width="48" height="48" viewBox="0 0 48 48" fill="none" xmlns="http://www.w3.org/2000/svg">
<g id="my_location_black_24dp">
<g id="Path 21">
<path d="M24 16C22.4088 16 20.323 16.116 19 17C17.677 17.884 16.6089 19.53 16 21C15.3911 22.47 15.6896 23.4394 16 25C16.3104 26.5606 16.8749 27.8749 18 29C19.1251 30.1251 20.4394 31.6896 22 32C23.5606 32.3104 25.53 31.6089 27 31C28.47 30.3911 29.116 29.323 30 28C30.884 26.677 32 25.5912 32 24C32.0004 22.9434 31.4042 21.9762 31 21C30.5958 20.0238 29.7471 18.7471 29 18C28.2529 17.2529 27.9762 16.4042 27 16C26.0238 15.5958 25.0566 15.9996 24 16ZM42 22C41.5443 17.9222 38.9012 13.9016 36 11C33.0988 8.0984 30.0778 6.45619 26 6V2H22V6C17.9219 6.45577 13.9016 8.09836 11 11C8.09836 13.9016 6.45577 17.9219 6 22H2V26H6C6.45598 30.078 8.09838 33.0986 11 36C13.9016 38.9014 17.922 41.5443 22 42V46H26V42C30.0777 41.5441 33.0986 38.9012 36 36C38.9014 33.0988 41.5439 30.0776 42 26H46V22H42ZM24 38C21.2155 38.0002 18.3153 36.5468 16 35C13.6847 33.4532 12.0657 31.5725 11 29C9.93435 26.4275 9.45683 23.731 10 21C10.5432 18.269 12.0311 15.9689 14 14C15.9689 12.0311 18.269 10.5432 21 10C23.731 9.45683 26.4275 9.93435 29 11C31.5725 12.0657 33.4532 13.6847 35 16C36.5468 18.3153 38.0002 21.2155 38 24C38.0012 25.849 37.707 27.2916 37 29C36.293 30.7084 35.3074 32.6926 34 34C32.6926 35.3074 30.7084 36.293 29 37C27.2916 37.707 25.849 38.0012 24 38Z" fill="black"/>
</g>
</g>
</svg>
