<svg width="16" height="16" viewBox="0 0 16 16" fill="none" xmlns="http://www.w3.org/2000/svg">
<g id="Icon">
<g id="Vector">
<path fill-rule="evenodd" clip-rule="evenodd" d="M7 0C3.09846 0 0 3.09846 0 7C0 10.9015 3.09846 14 7 14C10.9015 14 14 10.9015 14 7C14 3.09846 10.9015 0 7 0ZM1 7C1 3.65811 3.65811 1 7 1C10.3419 1 13 3.65811 13 7C13 10.3419 10.3419 13 7 13C3.65811 13 1 10.3419 1 7ZM9 4C9.16949 3.75911 9.24085 4.16951 9 4C8.75908 3.83049 9.16951 3.75911 9 4L6 8L4 7C3.79363 6.78982 4.21018 6.79363 4 7C3.78981 7.20636 3.79363 7.78982 4 8L5 9C5.11089 9.11296 5.84224 9.01291 6 9C5.90891 9.12949 6.15776 8.9872 6 9L9 4Z" fill="#005451"/>
</g>
</g>
</svg>
