<svg width="16" height="16" viewBox="0 0 16 16" fill="none" xmlns="http://www.w3.org/2000/svg">
<g id="Icon">
<g id="Vector">
<path fill-rule="evenodd" clip-rule="evenodd" d="M6.01383 3.15098C6.21637 2.94969 6.21637 3.35227 6.01383 3.15098C5.81131 2.94967 5.24397 2.94967 5.04145 3.15098L1.1519 7.0168C0.949366 7.21809 0.949366 7.78196 1.1519 7.98325L5.04145 11.8491C5.24397 12.0503 5.81131 12.0503 6.01383 11.8491C6.21637 11.6477 6.21637 11.084 6.01383 10.8826L2.12429 7.0168L6.01383 3.15098ZM11.8482 3.15098C12.0506 2.94969 12.0506 3.35227 11.8482 3.15098C11.6456 2.94967 11.0783 2.94967 10.8758 3.15098L6.98622 7.0168C6.78368 7.21809 6.78368 7.78196 6.98622 7.98325L10.8758 11.8491C11.0783 12.0503 11.6456 12.0503 11.8482 11.8491C12.0506 11.6477 12.0506 11.084 11.8482 10.8826L7.95861 7.0168L11.8482 3.15098Z" fill="#005451"/>
</g>
</g>
</svg>
