<svg width="16" height="16" viewBox="0 0 16 16" fill="none" xmlns="http://www.w3.org/2000/svg">
<g id="Icon">
<g id="Vector">
<path fill-rule="evenodd" clip-rule="evenodd" d="M1.1519 10.8826C0.949366 11.084 0.949366 11.6477 1.1519 11.8491C0.949376 12.0503 1.35443 12.0503 1.1519 11.8491L6.01383 7.98325C6.21637 7.78196 6.21637 7.21809 6.01383 7.0168L1.1519 3.15098C0.949376 2.94967 1.35443 2.94967 1.1519 3.15098C0.949366 2.94969 0.949366 3.35227 1.1519 3.15098L5.04145 7.0168L1.1519 10.8826ZM6.98622 10.8826C6.78368 11.084 6.78368 11.6477 6.98622 11.8491C7.18875 12.0503 7.75608 12.0503 7.95861 11.8491L11.8482 7.98325C12.0506 7.78196 12.0506 7.21809 11.8482 7.0168L7.95861 3.15098C7.75608 2.94967 7.18875 2.94967 6.98622 3.15098C6.78368 2.94969 6.78368 3.35227 6.98622 3.15098L10.8758 7.0168L6.98622 10.8826Z" fill="#005451"/>
</g>
</g>
</svg>
