<svg width="13" height="11" viewBox="0 0 13 11" fill="none" xmlns="http://www.w3.org/2000/svg">
<path fill-rule="evenodd" clip-rule="evenodd" d="M4.04936 1C3.18315 1 3.0691 1.11634 3.0691 2C3.0691 2.88366 3.18315 4 4.04936 4C4.91558 4 6.00988 2.88366 6.00988 2C6.00988 1.11634 4.91558 1 4.04936 1ZM2.08884 3C2.07181 3.00171 2.10632 3 2.08884 3C2.33007 4.21847 2.78383 5 4.04936 5C5.31489 5 6.74892 4.21847 6.99014 3C6.97267 3 7.00717 3.00171 6.99014 3H12.8717C13.1604 3 12.8717 2.29455 12.8717 2C12.8717 1.70545 13.1604 2 12.8717 2H6.99014C6.97267 2 7.00717 1.99829 6.99014 2C6.74892 0.781515 5.31489 0 4.04936 0C2.78383 0 2.33007 0.781515 2.08884 2C2.07181 1.99829 2.10632 2 2.08884 2H0.128326C-0.160408 2 0.128326 1.70545 0.128326 2C0.128326 2.29455 -0.160408 3 0.128326 3H2.08884ZM10.9112 9C10.67 10.2185 10.2162 11 8.95066 11C7.68512 11 6.2511 10.2185 6.00988 9C5.99285 9.00171 6.02735 9 6.00988 9H0.128326C-0.160408 9 0.128326 9.29451 0.128326 9C0.128326 8.70549 -0.160408 8 0.128326 8H6.00988C5.99285 7.99829 6.02735 8 6.00988 8C6.2511 6.78155 7.68512 6 8.95066 6C10.2162 6 10.67 6.78155 10.9112 8C10.8937 8 10.9282 7.99829 10.9112 8H12.8717C13.1604 8 12.8717 8.70549 12.8717 9C12.8717 9.29451 13.1604 9 12.8717 9H10.9112C10.9282 9.00171 10.8937 9 10.9112 9ZM6.99014 9C6.99014 8.11634 8.08444 7 8.95066 7C9.81684 7 9.93092 8.11634 9.93092 9C9.93092 9.88363 9.81684 10 8.95066 10C8.08444 10 6.99014 9.88363 6.99014 9Z" fill="#005451"/>
</svg>
