<svg width="16" height="16" viewBox="0 0 16 16" fill="none" xmlns="http://www.w3.org/2000/svg">
<g id="google" clip-path="url(#clip0_678_9756)">
<path id="Vector" d="M8.31992 7.28V9.46667H13.5466C13.3866 10.6933 12.9779 11.5913 12.3553 12.222C11.5906 12.9867 10.3999 13.822 8.31992 13.822C5.10192 13.822 2.58659 11.2267 2.58659 8.00867C2.58659 4.79067 5.10192 2.19533 8.31992 2.19533C10.0533 2.19533 11.3246 2.88 12.2579 3.76L13.7959 2.222C12.4979 0.96 10.7553 0 8.31992 0C3.91126 0 0.20459 3.59133 0.20459 8C0.20459 12.4087 3.91126 16 8.31992 16C10.7019 16 12.4979 15.218 13.9019 13.76C15.3419 12.32 15.7953 10.2847 15.7953 8.64867C15.7953 8.142 15.7599 7.67067 15.6799 7.28H8.31992Z" fill="#005451"/>
</g>
<defs>
<clipPath id="clip0_678_9756">
<rect width="16" height="16" fill="white"/>
</clipPath>
</defs>
</svg>
