<svg width="33" height="33" viewBox="0 0 33 33" fill="none" xmlns="http://www.w3.org/2000/svg">
<g id="ph:microphone-fill">
<path d="M0 16.5C0 7.3873 7.3873 0 16.5 0C25.6127 0 33 7.3873 33 16.5C33 25.6127 25.6127 33 16.5 33C7.3873 33 0 25.6127 0 16.5Z" fill="#005451"/>
<g id="Vector">
<path d="M11.0164 14.1097V10.1975C11.0164 9.35946 11.3953 7.85599 12.0098 7.26338C12.6244 6.67077 13.1276 7.26338 13.9967 7.26338C14.8659 7.26338 14.3756 6.67077 14.9902 7.26338C15.6047 7.85599 15.9836 9.35946 15.9836 10.1975V14.1097C15.9836 14.9478 15.6047 16.4513 14.9902 17.0439C14.3756 17.6365 14.8659 17.0439 13.9967 17.0439C13.1276 17.0439 12.6244 17.6365 12.0098 17.0439C11.3953 16.4513 11.0164 14.9478 11.0164 14.1097ZM17.9705 14.1097C17.8276 14.0949 18.0829 14.0235 17.9705 14.1097C17.858 14.196 16.9942 14.9502 16.977 15.0878C16.8571 16.1173 16.7846 16.3534 15.9836 17.0439C15.1826 17.7344 15.0711 19 13.9967 19C12.9223 19 11.8174 17.7344 11.0164 17.0439C10.2154 16.3534 10.1429 16.1173 10.023 15.0878C10.0058 14.9502 9.14199 14.196 9.02953 14.1097C8.91706 14.0235 9.1724 14.0949 9.02953 14.1097C8.95791 14.1163 9.09288 14.0769 9.02953 14.1097C8.96617 14.1426 9.07469 14.0558 9.02953 14.1097C8.98436 14.1637 9.04941 15.0211 9.02953 15.0878C9.00964 15.1545 9.02101 15.0189 9.02953 15.0878C9.16921 16.2827 9.13435 17.1783 10.023 18.0219C10.9116 18.8656 11.762 18.8838 13.0033 19V19.9781C13.0033 20.1177 13.8943 20.8573 13.9967 20.9561C13.8519 20.9561 14.0991 21.0549 13.9967 20.9561C13.8943 21.0549 14.1416 20.9561 13.9967 20.9561C14.0991 20.8573 13.9967 20.1177 13.9967 19.9781V19C15.238 18.8838 16.0884 18.8656 16.977 18.0219C17.8657 17.1783 17.8308 16.2827 17.9705 15.0878C17.979 15.0189 17.9904 15.1545 17.9705 15.0878C17.9506 15.0211 18.0156 14.1637 17.9705 14.1097C18.0338 14.1426 17.9253 14.0558 17.9705 14.1097C18.0421 14.1163 17.9071 14.0769 17.9705 14.1097Z" fill="white"/>
</g>
</g>
</svg>
