<svg width="24" height="24" viewBox="0 0 24 24" fill="none" xmlns="http://www.w3.org/2000/svg">
<g id="Icon" clip-path="url(#clip0_183_17067)">
<g id="Vector">
<path d="M3.99491 19.0283H0.0272215C-0.0638388 19.0282 0.109923 19.0663 0.0272215 19.0283C-0.0554798 18.9903 0.0864134 19.0973 0.0272215 19.0283C-0.0319705 18.9593 0.0520606 18.1251 0.0272215 18.0377C0.0023823 17.9504 0.0131575 18.1274 0.0272215 18.0377L3.00299 -1.77368C2.48727 -1.77368 3.08369 -2.2829 3.00299 -1.77368H9.94644C12.4758 -1.77368 14.8035 -2.02622 15.898 -0.783113C16.892 0.345198 17.1773 2.33795 16.8899 4.16974C16.8673 4.31004 16.9194 4.02355 16.8899 4.16974C15.9224 9.1245 12.1926 11.1037 7.9626 11.1037H5.97875C5.46304 11.1037 5.06753 11.5861 4.98683 12.0943L3.99491 19.0283ZM17.8818 4.16974C17.705 3.96928 17.1099 4.32183 16.8899 4.16974C16.8771 4.2443 16.9047 4.09223 16.8899 4.16974C15.9746 8.85763 13.0144 11.1037 7.9626 11.1037H5.97875C5.84624 11.1039 6.07915 11.0175 5.97875 11.1037C5.87836 11.1899 5.0066 11.9637 4.98683 12.0943L3.99491 19.0283L3.00299 21.0094C2.98127 20.933 2.99061 21.0879 3.00299 21.0094C3.02471 21.0859 3.94308 20.9491 3.99491 21.0094C3.9225 20.9763 4.04674 21.0698 3.99491 21.0094C4.06732 21.0426 3.91522 22.0001 3.99491 22H7.9626C8.41532 22 8.88366 21.4549 8.95452 21.0094C9.01357 20.7543 9.89132 16.2901 9.94644 16.0566C9.98029 15.8408 9.77982 15.2078 9.94644 15.066C10.1131 14.9242 10.7193 15.0655 10.9384 15.066C14.6389 15.066 18.0273 13.4573 18.8737 9.12259C19.228 7.31042 18.8178 5.23231 17.8818 4.16974Z" fill="#005451"/>
</g>
</g>
<defs>
<clipPath id="clip0_183_17067">
<rect width="24" height="24" fill="white"/>
</clipPath>
</defs>
</svg>
