<svg width="16" height="20" viewBox="0 0 16 20" fill="none" xmlns="http://www.w3.org/2000/svg">
<g id="download-pdf-icon 1" clip-path="url(#clip0_754_30668)">
<g id="Vector">
<path d="M1.00235 12.9387C0.561305 12.9387 0.561305 11.9437 1.00235 11.9437H4.98822C4.98072 12.0579 4.98822 11.8272 4.98822 11.9437C4.98822 12.0603 4.98072 12.8241 4.98822 12.9387H1.00235ZM1.99882 5.97396H1.00235V6.96892H0.00588632V3.98403H1.99882C2.70915 3.98403 2.99529 4.19115 2.99529 4.97899C2.99529 5.41221 3.18018 5.76606 2.99529 5.97396C2.92591 6.05255 3.11718 5.91937 2.99529 5.97396C2.87303 6.02855 2.16084 5.97396 1.99882 5.97396ZM1.00235 4.97899H1.99882C1.94444 5.00455 2.11771 4.97899 1.99882 4.97899C1.99882 5.07114 2.0532 4.95344 1.99882 4.97899C1.99882 4.88685 2.0532 5.00455 1.99882 4.97899C1.94444 4.95344 2.11771 4.97899 1.99882 4.97899H1.00235ZM2.99529 6.96892V3.98403H4.98822C5.54666 3.98403 5.77654 3.73858 5.98469 3.98403C6.19284 4.22948 5.98469 4.40447 5.98469 4.97899C5.98469 5.55391 6.19284 6.72347 5.98469 6.96892C5.77654 7.21437 5.54666 6.96892 4.98822 6.96892H2.99529ZM4.98822 4.97899H3.99176V5.97396H4.98822C4.92709 6.00648 5.12361 5.97396 4.98822 5.97396C4.98822 6.0901 5.04936 5.94144 4.98822 5.97396V4.97899C5.04936 5.01113 4.98822 4.86324 4.98822 4.97899C5.12361 4.97899 4.92709 4.94647 4.98822 4.97899ZM8.97409 5.97396H7.97763V6.96892H6.98116V3.98403H8.97409V4.97899H7.97763H8.97409V5.97396ZM7.97763 -1.98575V0.00418019C7.97763 2.54619 7.95396 0.999143 9.97056 0.999143H10.967L7.97763 -1.98575ZM10.967 1.99411H9.97056C7.68206 1.99411 6.98116 3.18614 6.98116 0.00418019V-1.98575H0.00588632C-0.807954 -1.98575 -0.990581 -0.835541 -0.990581 0.00418019V8.95885H5.98469C5.81067 9.17062 5.12624 9.71378 4.98822 9.95381H-0.990581V12.9387C-0.990581 13.7757 -0.804954 14.9286 0.00588632 14.9286H4.98822C5.12061 15.1656 5.81742 14.7188 5.98469 14.9286H0.00588632C-1.16387 14.9286 -0.990581 14.1462 -0.990581 12.9387V0.00418019C-0.990581 -1.20643 -1.16687 -1.98575 0.00588632 -1.98575H6.98116C7.03154 -1.98576 7.93253 -2.00892 7.97763 -1.98575C7.94727 -2.02725 8.02273 -1.96257 7.97763 -1.98575L11.9635 0.999143C11.9635 0.888419 12.0456 1.0909 11.9635 0.999143V7.96388C11.7553 7.84851 11.1921 8.04712 10.967 7.96388V1.99411Z" fill="#005451"/>
</g>
<g id="Vector_2">
<path fill-rule="evenodd" clip-rule="evenodd" d="M11 11C13.2309 11 15 12.6885 15 15C15 17.3111 13.2309 19 11 19C8.76906 19 7 17.3111 7 15C7 12.6885 8.76906 11 11 11Z" fill="#005451"/>
</g>
<g id="Vector_3">
<path d="M9.00415 12.0433V12.9661L9.80618 12.0433C10.0962 11.8945 10.031 12.6246 9.80618 12.9661C9.5326 13.3871 9.30656 14.4265 9.00415 14.8117C8.81629 15.0626 9.19252 15.0629 9.00415 14.8117C8.66938 14.3721 8.52931 13.4202 8.20212 12.9661C7.96824 12.6259 7.89921 11.8878 8.20212 12.0433L9.00415 12.9661C8.97255 12.4156 9.02817 12.5932 9.00415 12.0433C9.00415 11.9422 8.93032 12.0508 9.00415 12.0433C9.26484 12.0433 8.74422 12.0352 9.00415 12.0433C9.07798 12.0508 9.00415 11.9422 9.00415 12.0433Z" fill="white"/>
</g>
</g>
<defs>
<clipPath id="clip0_754_30668">
<rect width="16" height="20" fill="white"/>
</clipPath>
</defs>
</svg>
