<svg width="32" height="32" viewBox="0 0 32 32" fill="none" xmlns="http://www.w3.org/2000/svg">
<g id="ph:play-circle-fill">
<g id="Vector">
<path d="M14.2735 2.05074C11.8106 2.05074 8.48972 1.66401 6.44184 3.02594C4.39396 4.38786 2.48957 6.61234 1.54704 8.87713C0.604502 11.1419 1.06654 13.2992 1.54704 15.7035C2.02754 18.1078 2.74234 20.7965 4.48392 22.5299C6.2255 24.2633 8.921 24.9773 11.3366 25.4555C13.7523 25.9338 15.9139 26.3936 18.1894 25.4555C20.4648 24.5174 22.6948 22.6178 24.0631 20.5795C25.4315 18.5413 27 15.2293 27 12.7779C26.9937 9.49265 25.4182 6.32419 23.0842 4.00114C20.7501 1.67808 17.5743 2.05704 14.2735 2.05074ZM18.1894 13.7531L12.3156 17.6539C12.1571 17.7516 12.502 17.6501 12.3156 17.6539C12.1576 17.6538 11.4779 17.7243 11.3366 17.6539C11.1835 17.5717 11.4252 17.803 11.3366 17.6539C11.248 17.5049 11.3353 16.8519 11.3366 16.6787V8.87713C11.248 9.02621 11.3353 8.70393 11.3366 8.87713C11.1835 8.9594 11.4252 8.72806 11.3366 8.87713C11.4904 8.79966 12.1435 8.86878 12.3156 8.87713C12.1701 8.78514 12.4877 8.88549 12.3156 8.87713L18.1894 12.7779C18.1135 12.6385 18.3228 12.8646 18.1894 12.7779C18.2652 12.9174 19.1683 12.6194 19.1683 12.7779C19.1683 12.9365 18.2652 13.6137 18.1894 13.7531C18.3228 13.6665 18.1135 13.8926 18.1894 13.7531Z" fill="white"/>
</g>
</g>
</svg>
