<svg width="117" height="23" viewBox="0 0 117 23" fill="none" xmlns="http://www.w3.org/2000/svg">
<g id="ratings">
<g id="star_border_black_24dp">
<g id="Path 186">
<path d="M1 8L7 7L10 1L13 7L20 8L15 12L16 19L10 15L4 19L6 12L1 8ZM10 14L14 16L13 12L16 9L12 8L10 4L9 8L4 9L8 12L7 16L10 14Z" fill="#005451"/>
</g>
</g>
<g id="star_border_black_24dp_2">
<g id="Path 186_2">
<path d="M25 8L31 7L34 1L37 7L44 8L39 12L40 19L34 15L28 19L30 12L25 8ZM34 14L38 16L37 12L40 9L36 8L34 4L33 8L28 9L32 12L31 16L34 14Z" fill="black"/>
</g>
</g>
<g id="star_border_black_24dp_3">
<g id="Path 186_3">
<path d="M48 8L54 7L57 1L60 7L67 8L62 12L63 19L57 15L51 19L53 12L48 8ZM57 14L61 16L60 12L63 9L59 8L57 4L56 8L51 9L55 12L54 16L57 14Z" fill="black"/>
</g>
</g>
<g id="star_border_black_24dp_4">
<g id="Path 186_4">
<path d="M25 8L31 7L34 1L37 7L44 8L39 12L40 19L34 15L28 19L30 12L25 8ZM34 14L38 16L37 12L40 9L36 8L34 4L33 8L28 9L32 12L31 16L34 14Z" fill="#005451"/>
</g>
</g>
<g id="star_border_black_24dp_5">
<g id="Path 186_5">
<path d="M48 8L54 7L57 1L60 7L67 8L62 12L63 19L57 15L51 19L53 12L48 8ZM57 14L61 16L60 12L63 9L59 8L57 4L56 8L51 9L55 12L54 16L57 14Z" fill="#005451"/>
</g>
</g>
<g id="star_border_black_24dp_6">
<g id="Path 186_6">
<path d="M71 8L77 7L80 1L83 7L90 8L85 12L86 19L80 15L74 19L76 12L71 8ZM80 14L84 16L83 12L86 9L82 8L80 4L79 8L74 9L78 12L77 16L80 14Z" fill="#005451"/>
</g>
</g>
<g id="star_border_black_24dp_7">
<g id="Path 186_7">
<path d="M95 8L101 7L104 1L107 7L114 8L109 12L110 19L104 15L98 19L100 12L95 8ZM104 14L108 16L107 12L110 9L106 8L104 4L103 8L98 9L102 12L101 16L104 14Z" fill="#005451"/>
</g>
</g>
</g>
</svg>
