<svg width="92" height="18" viewBox="0 0 92 18" fill="none" xmlns="http://www.w3.org/2000/svg">
<g id="ratings">
<g id="star_border_black_24dp">
<g id="Path 186">
<path d="M1 6H6L8 1L10 6H16L12 10L13 15L8 12L3 15L5 10L1 6ZM8 11L11 12L10 9L13 7H9L8 4L7 7H3L6 9L5 12L8 11Z" fill="#005451"/>
</g>
</g>
<g id="star_border_black_24dp_2">
<g id="Path 186_2">
<path d="M20 6H25L27 1L29 6H35L31 10L32 15L27 12L22 15L24 10L20 6ZM27 11L30 12L29 9L32 7H28L27 4L26 7H22L25 9L24 12L27 11Z" fill="#005451"/>
</g>
</g>
<g id="star_border_black_24dp_3">
<g id="Path 186_3">
<path d="M38 6H43L45 1L47 6H53L49 10L50 15L45 12L40 15L42 10L38 6ZM45 11L48 12L47 9L50 7H46L45 4L44 7H40L43 9L42 12L45 11Z" fill="#005451"/>
</g>
</g>
<g id="star_border_black_24dp_4">
<g id="Path 186_4">
<path d="M20 6H25L27 1L29 6H35L31 10L32 15L27 12L22 15L24 10L20 6ZM27 11L30 12L29 9L32 7H28L27 4L26 7H22L25 9L24 12L27 11Z" fill="#005451"/>
</g>
</g>
<g id="star_border_black_24dp_5">
<g id="Path 186_5">
<path d="M38 6H43L45 1L47 6H53L49 10L50 15L45 12L40 15L42 10L38 6ZM45 11L48 12L47 9L50 7H46L45 4L44 7H40L43 9L42 12L45 11Z" fill="#005451"/>
</g>
</g>
<g id="star_border_black_24dp_6">
<g id="Path 186_6">
<path d="M56 6H61L63 1L65 6H71L67 10L68 15L63 12L58 15L60 10L56 6ZM63 11L66 12L65 9L68 7H64L63 4L62 7H58L61 9L60 12L63 11Z" fill="#005451"/>
</g>
</g>
<g id="star_border_black_24dp_7">
<g id="Path 186_7">
<path d="M75 6H80L82 1L84 6H90L86 10L87 15L82 12L77 15L79 10L75 6ZM82 11L85 12L84 9L87 7H83L82 4L81 7H77L80 9L79 12L82 11Z" fill="#005451"/>
</g>
</g>
</g>
</svg>
