<svg width="20" height="20" viewBox="0 0 20 20" fill="none" xmlns="http://www.w3.org/2000/svg">
<g id="x" clip-path="url(#clip0_1084_18760)">
<g id="Group">
<g id="Vector" filter="url(#filter0_d_1084_18760)">
<path d="M2.08301 9.9987C2.08301 6.26703 2.08301 4.40036 3.24217 3.2412C4.40134 2.08203 6.26718 2.08203 10.0005 2.08203C13.7322 2.08203 15.598 2.08203 16.7572 3.2412C17.9163 4.40036 17.9163 6.2662 17.9163 9.9987C17.9163 13.7304 17.9163 15.597 16.7572 16.7562C15.598 17.9154 13.7322 17.9154 9.99968 17.9154C6.26801 17.9154 4.40217 17.9154 3.24217 16.7562C2.08384 15.5962 2.08301 13.7312 2.08301 9.9987Z" stroke="#005451" stroke-linecap="round" stroke-linejoin="round" shape-rendering="crispEdges"/>
</g>
<path id="Vector_2" d="M5.83301 14.1654L9.32801 10.6712M9.32801 10.6712L5.83301 5.83203H8.14717L10.6722 9.32703L14.1663 5.83203M9.32801 10.6712L11.8513 14.1654H14.1663L10.6722 9.3262" stroke="#005451" stroke-linecap="round" stroke-linejoin="round"/>
</g>
</g>
<defs>
<filter id="filter0_d_1084_18760" x="-0.416992" y="-0.417969" width="20.833" height="20.832" filterUnits="userSpaceOnUse" color-interpolation-filters="sRGB">
<feFlood flood-opacity="0" result="BackgroundImageFix"/>
<feColorMatrix in="SourceAlpha" type="matrix" values="0 0 0 0 0 0 0 0 0 0 0 0 0 0 0 0 0 0 127 0" result="hardAlpha"/>
<feOffset/>
<feGaussianBlur stdDeviation="1"/>
<feComposite in2="hardAlpha" operator="out"/>
<feColorMatrix type="matrix" values="0 0 0 0 0 0 0 0 0 0 0 0 0 0 0 0 0 0 0.25 0"/>
<feBlend mode="normal" in2="BackgroundImageFix" result="effect1_dropShadow_1084_18760"/>
<feBlend mode="normal" in="SourceGraphic" in2="effect1_dropShadow_1084_18760" result="shape"/>
</filter>
<clipPath id="clip0_1084_18760">
<rect width="20" height="20" fill="white"/>
</clipPath>
</defs>
</svg>
