<svg width="16" height="16" viewBox="0 0 16 16" fill="none" xmlns="http://www.w3.org/2000/svg">
<g id="Icon">
<g id="Vector">
<path fill-rule="evenodd" clip-rule="evenodd" d="M4.13311 4.99988C3.95563 5.18365 3.95563 5.79645 4.13311 5.98022C3.95563 6.16397 4.31058 6.16397 4.13311 5.98022L6.02663 4.01955L7.92016 5.98022C8.09764 6.16397 8.68944 6.16397 8.86692 5.98022C9.04436 5.79645 9.04436 5.18365 8.86692 4.99988L6.9734 3.03922C6.88816 2.95097 6.14715 3.03922 6.02663 3.03922C5.9061 3.03922 6.11186 2.95097 6.02663 3.03922L4.13311 4.99988ZM8.86692 8.92121C9.04436 8.73744 9.04436 9.10498 8.86692 8.92121C8.68944 8.73745 8.09764 8.73745 7.92016 8.92121L6.02663 10.8819L4.13311 8.92121C3.95563 8.73745 4.31058 8.73745 4.13311 8.92121C3.95563 8.73744 3.95563 9.10498 4.13311 8.92121L6.02663 11.8622C6.20411 12.0459 6.79592 12.0459 6.9734 11.8622L8.86692 8.92121Z" fill="#71717A"/>
</g>
</g>
</svg>
