<svg width="36" height="31" viewBox="0 0 36 31" fill="none" xmlns="http://www.w3.org/2000/svg">
<g id="Group 26">
<g id="Group 24">
<g id="Vector">
<path d="M18.1696 0.173153C14.7545 0.173153 11.1034 -0.610995 8.26379 1.15814C5.42422 2.92727 3.62723 6.09606 2.32032 9.03801C1.01341 11.98 0.663481 14.7797 1.32974 17.9029C1.99599 21.026 3.86778 24.5161 6.28263 26.7677C8.69749 29.0194 11.8483 30.0864 15.1978 30.7077C18.5473 31.3289 21.9485 30.9413 25.1036 29.7227C28.2588 28.5041 31.1309 26.4605 33.0283 23.8128C34.9256 21.1651 36 18.1323 36 14.9479C35.9956 10.6791 34.2844 6.14663 31.0471 3.12811C27.8098 0.109588 22.7478 0.177252 18.1696 0.173153Z" fill="white"/>
</g>
</g>
<g id="Vector_2">
<path d="M17.1696 0.173153C13.7545 0.173153 10.1034 -0.610995 7.26379 1.15814C4.42422 2.92727 2.62723 6.09606 1.32032 9.03801C0.0134074 11.98 -0.336519 14.7797 0.329738 17.9029C0.995994 21.026 2.86778 24.5161 5.28263 26.7677C7.69749 29.0194 10.8483 30.0864 14.1978 30.7077C17.5473 31.3289 20.9485 30.9413 24.1036 29.7227C27.2588 28.5041 30.1309 26.4605 32.0283 23.8128C33.9256 21.1651 35 18.1323 35 14.9479C34.9956 10.6791 33.2844 6.14663 30.0471 3.12811C26.8098 0.109588 21.7478 0.177252 17.1696 0.173153ZM24.1036 15.9329H18.1602V20.8578C18.1602 21.1863 18.4093 21.6106 18.1602 21.8428C17.9111 22.0751 17.5219 22.8278 17.1696 22.8278C16.8173 22.8278 16.4281 22.0751 16.179 21.8428C15.9299 21.6106 16.179 21.1863 16.179 20.8578V15.9329H10.2355C9.88326 15.9329 9.49404 16.1652 9.24495 15.9329C8.99585 15.7006 9.24495 15.2764 9.24495 14.9479C9.24495 14.6195 8.99585 14.1952 9.24495 13.9629C9.49404 13.7307 9.88326 13.9629 10.2355 13.9629H16.179V9.03801C16.179 8.70955 15.9299 8.28529 16.179 8.05303C16.4281 7.82077 16.8173 7.06805 17.1696 7.06805C17.5219 7.06805 17.9111 7.82077 18.1602 8.05303C18.4093 8.28529 18.1602 8.70955 18.1602 9.03801V13.9629H24.1036C24.4559 13.9629 24.8451 13.7307 25.0942 13.9629C25.3433 14.1952 25.0942 14.6195 25.0942 14.9479C25.0942 15.2764 25.3433 15.7006 25.0942 15.9329C24.8451 16.1652 24.4559 15.9329 24.1036 15.9329Z" fill="#005451"/>
</g>
</g>
</svg>
