<svg width="101" height="26" viewBox="0 0 101 26" fill="none" xmlns="http://www.w3.org/2000/svg">
<g id="Group 29">
<g id="Group 27">
<line id="Line 7" x1="1.64815" y1="9.52595" x2="1.52599" y2="16.5249" stroke="white" stroke-width="3" stroke-linecap="round"/>
<line id="Line 8" x1="7.67456" y1="6.5" x2="7.67456" y2="20.5" stroke="white" stroke-width="3" stroke-linecap="round"/>
<line id="Line 10" x1="17.6746" y1="6.5" x2="17.6746" y2="20.5" stroke="white" stroke-width="3" stroke-linecap="round"/>
<line id="Line 20" x1="71.6746" y1="9.5" x2="71.6746" y2="16.5" stroke="white" stroke-width="3" stroke-linecap="round"/>
<line id="Line 21" x1="76.6746" y1="6.5" x2="76.6746" y2="20.5" stroke="white" stroke-width="3" stroke-linecap="round"/>
<line id="Line 22" x1="82.6746" y1="9.5" x2="82.6746" y2="16.5" stroke="white" stroke-width="3" stroke-linecap="round"/>
<line id="Line 23" x1="87.6746" y1="7.5" x2="87.6746" y2="18.5" stroke="white" stroke-width="3" stroke-linecap="round"/>
<line id="Line 24" x1="93.6746" y1="9.5" x2="93.6746" y2="16.5" stroke="white" stroke-width="3" stroke-linecap="round"/>
<line id="Line 13" x1="33.6746" y1="7.5" x2="33.6746" y2="18.5" stroke="white" stroke-width="3" stroke-linecap="round"/>
<line id="Line 14" x1="39.6746" y1="6.5" x2="39.6746" y2="20.5" stroke="white" stroke-width="3" stroke-linecap="round"/>
<line id="Line 15" x1="44.6746" y1="7.5" x2="44.6746" y2="18.5" stroke="white" stroke-width="3" stroke-linecap="round"/>
<line id="Line 11" x1="22.6746" y1="9.5" x2="22.6746" y2="16.5" stroke="white" stroke-width="3" stroke-linecap="round"/>
<line id="Line 18" x1="60.6746" y1="9.5" x2="60.6746" y2="16.5" stroke="white" stroke-width="3" stroke-linecap="round"/>
<line id="Line 19" x1="65.6746" y1="11.5" x2="65.6746" y2="15.5" stroke="white" stroke-width="3" stroke-linecap="round"/>
<line id="Line 16" x1="50.6746" y1="9.5" x2="50.6746" y2="16.5" stroke="white" stroke-width="3" stroke-linecap="round"/>
<line id="Line 17" x1="55.6746" y1="7.5" x2="55.6746" y2="18.5" stroke="white" stroke-width="3" stroke-linecap="round"/>
<line id="Line 12" x1="28.6746" y1="11.5" x2="28.6746" y2="15.5" stroke="white" stroke-width="3" stroke-linecap="round"/>
<line id="Line 25" x1="98.6746" y1="11.5" x2="98.6746" y2="15.5" stroke="white" stroke-width="3" stroke-linecap="round"/>
<line id="Line 9" x1="12.6746" y1="2.89063" x2="12.6746" y2="23.8906" stroke="white" stroke-width="3" stroke-linecap="round"/>
</g>
<g id="Group 28">
<line id="Line 7_2" x1="2.64815" y1="9.91658" x2="2.52599" y2="16.9155" stroke="white" stroke-width="3" stroke-linecap="round"/>
<line id="Line 8_2" x1="7.67456" y1="5.89063" x2="7.67456" y2="19.8906" stroke="white" stroke-width="3" stroke-linecap="round"/>
<line id="Line 10_2" x1="18.6746" y1="5.89063" x2="18.6746" y2="19.8906" stroke="white" stroke-width="3" stroke-linecap="round"/>
<line id="Line 13_2" x1="34.6746" y1="7.89063" x2="34.6746" y2="18.8906" stroke="white" stroke-width="3" stroke-linecap="round"/>
<line id="Line 14_2" x1="40.6746" y1="5.89063" x2="40.6746" y2="19.8906" stroke="white" stroke-width="3" stroke-linecap="round"/>
<line id="Line 15_2" x1="45.6746" y1="7.89063" x2="45.6746" y2="18.8906" stroke="white" stroke-width="3" stroke-linecap="round"/>
<line id="Line 11_2" x1="23.6746" y1="9.89063" x2="23.6746" y2="16.8906" stroke="white" stroke-width="3" stroke-linecap="round"/>
<line id="Line 16_2" x1="50.6746" y1="9.89063" x2="50.6746" y2="16.8906" stroke="white" stroke-width="3" stroke-linecap="round"/>
<line id="Line 12_2" x1="29.6746" y1="10.8906" x2="29.6746" y2="14.8906" stroke="white" stroke-width="3" stroke-linecap="round"/>
<line id="Line 9_2" x1="12.6746" y1="2.10938" x2="12.6746" y2="23.1094" stroke="white" stroke-width="3" stroke-linecap="round"/>
</g>
</g>
</svg>
